<mxfile host="app.diagrams.net" modified="2024-04-22T10:05:46.072Z" agent="Mozilla/5.0 (Macintosh; Intel Mac OS X 10_15_7) AppleWebKit/537.36 (KHTML, like Gecko) Chrome/124.0.0.0 Safari/537.36" version="24.2.2" etag="n3LaS2NYg0cXjZG6bbI_" type="github">
  <diagram name="Page-1" id="-awhda2baYOCYrHAV5k1">
    <mxGraphModel>
      <root>
        <mxCell id="0" />
        <mxCell id="1" parent="0" />
      </root>
    </mxGraphModel>
  </diagram>
</mxfile>
